<mxfile host="Electron" modified="2023-12-19T17:24:03.082Z" agent="Mozilla/5.0 (Windows NT 10.0; Win64; x64) AppleWebKit/537.36 (KHTML, like Gecko) draw.io/22.1.11 Chrome/114.0.5735.289 Electron/25.9.8 Safari/537.36" etag="VO9RfsaALvDgAyhylsMs" version="22.1.11" type="device">
  <diagram name="Page-1" id="edf60f1a-56cd-e834-aa8a-f176f3a09ee4">
    <mxGraphModel dx="1295" dy="758" grid="1" gridSize="10" guides="1" tooltips="1" connect="1" arrows="1" fold="1" page="1" pageScale="1" pageWidth="1169" pageHeight="827" background="none" math="0" shadow="0">
      <root>
        <mxCell id="0" />
        <mxCell id="1" parent="0" />
        <mxCell id="ee3Hf3BzdbRgXfLqMHV_-15" style="edgeStyle=orthogonalEdgeStyle;rounded=0;orthogonalLoop=1;jettySize=auto;html=1;exitX=0.5;exitY=1;exitDx=0;exitDy=0;entryX=0.5;entryY=0;entryDx=0;entryDy=0;sketch=1;curveFitting=1;jiggle=2;" parent="1" source="ee3Hf3BzdbRgXfLqMHV_-10" target="ee3Hf3BzdbRgXfLqMHV_-14" edge="1">
          <mxGeometry relative="1" as="geometry" />
        </mxCell>
        <mxCell id="ee3Hf3BzdbRgXfLqMHV_-10" value="Access the company-specific report version table from the database (contains version details for each financial report by season)" style="rounded=0;whiteSpace=wrap;html=1;sketch=1;curveFitting=1;jiggle=2;" parent="1" vertex="1">
          <mxGeometry x="120" y="80" width="220" height="80" as="geometry" />
        </mxCell>
        <mxCell id="ee3Hf3BzdbRgXfLqMHV_-30" style="edgeStyle=orthogonalEdgeStyle;rounded=0;orthogonalLoop=1;jettySize=auto;html=1;exitX=0.5;exitY=1;exitDx=0;exitDy=0;entryX=0;entryY=0.5;entryDx=0;entryDy=0;sketch=1;curveFitting=1;jiggle=2;" parent="1" source="ee3Hf3BzdbRgXfLqMHV_-47" target="ee3Hf3BzdbRgXfLqMHV_-16" edge="1">
          <mxGeometry relative="1" as="geometry">
            <mxPoint x="230" y="620" as="sourcePoint" />
            <Array as="points">
              <mxPoint x="230" y="640" />
              <mxPoint x="70" y="640" />
              <mxPoint x="70" y="310" />
            </Array>
          </mxGeometry>
        </mxCell>
        <mxCell id="ee3Hf3BzdbRgXfLqMHV_-18" style="edgeStyle=orthogonalEdgeStyle;rounded=0;orthogonalLoop=1;jettySize=auto;html=1;exitX=0.5;exitY=1;exitDx=0;exitDy=0;entryX=0.5;entryY=0;entryDx=0;entryDy=0;sketch=1;curveFitting=1;jiggle=2;" parent="1" source="ee3Hf3BzdbRgXfLqMHV_-14" target="ee3Hf3BzdbRgXfLqMHV_-16" edge="1">
          <mxGeometry relative="1" as="geometry" />
        </mxCell>
        <mxCell id="ee3Hf3BzdbRgXfLqMHV_-14" value="for each company" style="rounded=0;whiteSpace=wrap;html=1;sketch=1;curveFitting=1;jiggle=2;" parent="1" vertex="1">
          <mxGeometry x="170" y="200" width="120" height="40" as="geometry" />
        </mxCell>
        <mxCell id="ee3Hf3BzdbRgXfLqMHV_-19" style="edgeStyle=orthogonalEdgeStyle;rounded=0;orthogonalLoop=1;jettySize=auto;html=1;exitX=0.5;exitY=1;exitDx=0;exitDy=0;entryX=0.5;entryY=0;entryDx=0;entryDy=0;sketch=1;curveFitting=1;jiggle=2;" parent="1" source="ee3Hf3BzdbRgXfLqMHV_-16" target="ee3Hf3BzdbRgXfLqMHV_-35" edge="1">
          <mxGeometry relative="1" as="geometry">
            <mxPoint x="230" y="380" as="targetPoint" />
          </mxGeometry>
        </mxCell>
        <mxCell id="ee3Hf3BzdbRgXfLqMHV_-20" value="Yes" style="edgeLabel;html=1;align=center;verticalAlign=middle;resizable=0;points=[];sketch=1;curveFitting=1;jiggle=2;" parent="ee3Hf3BzdbRgXfLqMHV_-19" vertex="1" connectable="0">
          <mxGeometry x="-0.2762" relative="1" as="geometry">
            <mxPoint as="offset" />
          </mxGeometry>
        </mxCell>
        <mxCell id="ee3Hf3BzdbRgXfLqMHV_-25" style="edgeStyle=orthogonalEdgeStyle;rounded=0;orthogonalLoop=1;jettySize=auto;html=1;exitX=1;exitY=0.5;exitDx=0;exitDy=0;entryX=0;entryY=0.5;entryDx=0;entryDy=0;sketch=1;curveFitting=1;jiggle=2;" parent="1" source="ee3Hf3BzdbRgXfLqMHV_-16" target="Dkk2OCtutx-lru7fRSQ2-1" edge="1">
          <mxGeometry relative="1" as="geometry">
            <mxPoint x="370" y="310" as="targetPoint" />
          </mxGeometry>
        </mxCell>
        <mxCell id="ee3Hf3BzdbRgXfLqMHV_-29" value="No" style="edgeLabel;html=1;align=center;verticalAlign=middle;resizable=0;points=[];sketch=1;curveFitting=1;jiggle=2;" parent="ee3Hf3BzdbRgXfLqMHV_-25" vertex="1" connectable="0">
          <mxGeometry x="-0.8512" y="1" relative="1" as="geometry">
            <mxPoint x="13" y="1" as="offset" />
          </mxGeometry>
        </mxCell>
        <mxCell id="ee3Hf3BzdbRgXfLqMHV_-16" value="if still have company" style="rhombus;whiteSpace=wrap;html=1;sketch=1;curveFitting=1;jiggle=2;" parent="1" vertex="1">
          <mxGeometry x="175" y="270" width="110" height="80" as="geometry" />
        </mxCell>
        <mxCell id="ee3Hf3BzdbRgXfLqMHV_-21" style="edgeStyle=orthogonalEdgeStyle;rounded=0;orthogonalLoop=1;jettySize=auto;html=1;exitX=0.5;exitY=1;exitDx=0;exitDy=0;entryX=0.5;entryY=0;entryDx=0;entryDy=0;sketch=1;curveFitting=1;jiggle=2;" parent="1" source="ee3Hf3BzdbRgXfLqMHV_-35" target="ee3Hf3BzdbRgXfLqMHV_-47" edge="1">
          <mxGeometry relative="1" as="geometry">
            <mxPoint x="250.45" y="470" as="sourcePoint" />
            <mxPoint x="250.00000000000017" y="527.06" as="targetPoint" />
          </mxGeometry>
        </mxCell>
        <mxCell id="ee3Hf3BzdbRgXfLqMHV_-33" style="edgeStyle=orthogonalEdgeStyle;rounded=0;orthogonalLoop=1;jettySize=auto;html=1;exitX=0;exitY=0.5;exitDx=0;exitDy=0;entryX=1;entryY=0.5;entryDx=0;entryDy=0;sketch=1;curveFitting=1;jiggle=2;" parent="1" source="ee3Hf3BzdbRgXfLqMHV_-31" target="ee3Hf3BzdbRgXfLqMHV_-32" edge="1">
          <mxGeometry relative="1" as="geometry" />
        </mxCell>
        <mxCell id="ee3Hf3BzdbRgXfLqMHV_-31" value="Refresh the list of publicly traded company ticker symbols" style="ellipse;whiteSpace=wrap;html=1;sketch=1;curveFitting=1;jiggle=2;" parent="1" vertex="1">
          <mxGeometry x="700" y="80" width="200" height="80" as="geometry" />
        </mxCell>
        <mxCell id="ee3Hf3BzdbRgXfLqMHV_-34" style="edgeStyle=orthogonalEdgeStyle;rounded=0;orthogonalLoop=1;jettySize=auto;html=1;exitX=0;exitY=0.5;exitDx=0;exitDy=0;entryX=1;entryY=0.5;entryDx=0;entryDy=0;sketch=1;curveFitting=1;jiggle=2;" parent="1" source="ee3Hf3BzdbRgXfLqMHV_-32" target="ee3Hf3BzdbRgXfLqMHV_-10" edge="1">
          <mxGeometry relative="1" as="geometry" />
        </mxCell>
        <mxCell id="ee3Hf3BzdbRgXfLqMHV_-32" value="Get the latest defined version for each report" style="rounded=0;whiteSpace=wrap;html=1;sketch=1;curveFitting=1;jiggle=2;" parent="1" vertex="1">
          <mxGeometry x="460" y="90" width="120" height="60" as="geometry" />
        </mxCell>
        <mxCell id="Dkk2OCtutx-lru7fRSQ2-40" style="edgeStyle=orthogonalEdgeStyle;rounded=0;orthogonalLoop=1;jettySize=auto;html=1;exitX=1;exitY=0.5;exitDx=0;exitDy=0;entryX=0.5;entryY=0;entryDx=0;entryDy=0;sketch=1;curveFitting=1;jiggle=2;" edge="1" parent="1" source="ee3Hf3BzdbRgXfLqMHV_-35" target="ee3Hf3BzdbRgXfLqMHV_-44">
          <mxGeometry relative="1" as="geometry">
            <Array as="points">
              <mxPoint x="390" y="420" />
              <mxPoint x="390" y="260" />
              <mxPoint x="605" y="260" />
            </Array>
          </mxGeometry>
        </mxCell>
        <mxCell id="ee3Hf3BzdbRgXfLqMHV_-35" value="Pass last season" style="rounded=0;whiteSpace=wrap;html=1;sketch=1;curveFitting=1;jiggle=2;" parent="1" vertex="1">
          <mxGeometry x="170" y="390" width="120" height="60" as="geometry" />
        </mxCell>
        <mxCell id="Dkk2OCtutx-lru7fRSQ2-41" style="edgeStyle=orthogonalEdgeStyle;rounded=0;orthogonalLoop=1;jettySize=auto;html=1;exitX=1;exitY=0.5;exitDx=0;exitDy=0;entryX=0.5;entryY=0;entryDx=0;entryDy=0;sketch=1;curveFitting=1;jiggle=2;" edge="1" parent="1" source="ee3Hf3BzdbRgXfLqMHV_-47" target="ee3Hf3BzdbRgXfLqMHV_-44">
          <mxGeometry relative="1" as="geometry">
            <Array as="points">
              <mxPoint x="390" y="560" />
              <mxPoint x="390" y="260" />
              <mxPoint x="605" y="260" />
            </Array>
          </mxGeometry>
        </mxCell>
        <mxCell id="ee3Hf3BzdbRgXfLqMHV_-47" value="Pass penultimate season" style="rounded=0;whiteSpace=wrap;html=1;sketch=1;curveFitting=1;jiggle=2;" parent="1" vertex="1">
          <mxGeometry x="170" y="530" width="120" height="60" as="geometry" />
        </mxCell>
        <mxCell id="Dkk2OCtutx-lru7fRSQ2-1" value="End" style="ellipse;whiteSpace=wrap;html=1;aspect=fixed;sketch=1;curveFitting=1;jiggle=2;" vertex="1" parent="1">
          <mxGeometry x="320" y="285" width="50" height="50" as="geometry" />
        </mxCell>
        <mxCell id="Dkk2OCtutx-lru7fRSQ2-16" style="edgeStyle=orthogonalEdgeStyle;rounded=0;orthogonalLoop=1;jettySize=auto;html=1;exitX=0.5;exitY=1;exitDx=0;exitDy=0;entryX=0.5;entryY=0;entryDx=0;entryDy=0;sketch=1;curveFitting=1;jiggle=2;" edge="1" parent="1" source="Dkk2OCtutx-lru7fRSQ2-5" target="Dkk2OCtutx-lru7fRSQ2-7">
          <mxGeometry relative="1" as="geometry" />
        </mxCell>
        <mxCell id="Dkk2OCtutx-lru7fRSQ2-5" value="Get the message back from RabbitMQ" style="ellipse;whiteSpace=wrap;html=1;sketch=1;curveFitting=1;jiggle=2;" vertex="1" parent="1">
          <mxGeometry x="855" y="360" width="130" height="80" as="geometry" />
        </mxCell>
        <mxCell id="Dkk2OCtutx-lru7fRSQ2-17" style="edgeStyle=orthogonalEdgeStyle;rounded=0;orthogonalLoop=1;jettySize=auto;html=1;exitX=0.5;exitY=1;exitDx=0;exitDy=0;entryX=0.5;entryY=0;entryDx=0;entryDy=0;sketch=1;curveFitting=1;jiggle=2;" edge="1" parent="1" source="Dkk2OCtutx-lru7fRSQ2-7" target="Dkk2OCtutx-lru7fRSQ2-9">
          <mxGeometry relative="1" as="geometry" />
        </mxCell>
        <mxCell id="Dkk2OCtutx-lru7fRSQ2-7" value="Update version into local table" style="rounded=0;whiteSpace=wrap;html=1;sketch=1;curveFitting=1;jiggle=2;" vertex="1" parent="1">
          <mxGeometry x="860" y="460" width="120" height="60" as="geometry" />
        </mxCell>
        <mxCell id="Dkk2OCtutx-lru7fRSQ2-13" style="edgeStyle=orthogonalEdgeStyle;rounded=0;orthogonalLoop=1;jettySize=auto;html=1;exitX=1;exitY=0.5;exitDx=0;exitDy=0;entryX=0;entryY=0.5;entryDx=0;entryDy=0;sketch=1;curveFitting=1;jiggle=2;" edge="1" parent="1" source="Dkk2OCtutx-lru7fRSQ2-9" target="Dkk2OCtutx-lru7fRSQ2-12">
          <mxGeometry relative="1" as="geometry" />
        </mxCell>
        <mxCell id="Dkk2OCtutx-lru7fRSQ2-19" value="Yes" style="edgeLabel;html=1;align=center;verticalAlign=middle;resizable=0;points=[];sketch=1;curveFitting=1;jiggle=2;" vertex="1" connectable="0" parent="Dkk2OCtutx-lru7fRSQ2-13">
          <mxGeometry x="-0.6762" y="3" relative="1" as="geometry">
            <mxPoint as="offset" />
          </mxGeometry>
        </mxCell>
        <mxCell id="Dkk2OCtutx-lru7fRSQ2-18" style="edgeStyle=orthogonalEdgeStyle;rounded=0;orthogonalLoop=1;jettySize=auto;html=1;exitX=0.5;exitY=1;exitDx=0;exitDy=0;entryX=0.5;entryY=0;entryDx=0;entryDy=0;sketch=1;curveFitting=1;jiggle=2;" edge="1" parent="1" source="Dkk2OCtutx-lru7fRSQ2-9" target="Dkk2OCtutx-lru7fRSQ2-14">
          <mxGeometry relative="1" as="geometry" />
        </mxCell>
        <mxCell id="Dkk2OCtutx-lru7fRSQ2-20" value="No" style="edgeLabel;html=1;align=center;verticalAlign=middle;resizable=0;points=[];sketch=1;curveFitting=1;jiggle=2;" vertex="1" connectable="0" parent="Dkk2OCtutx-lru7fRSQ2-18">
          <mxGeometry x="-0.4971" y="1" relative="1" as="geometry">
            <mxPoint as="offset" />
          </mxGeometry>
        </mxCell>
        <mxCell id="Dkk2OCtutx-lru7fRSQ2-9" value="if the version is &quot;NDF&quot;" style="rhombus;whiteSpace=wrap;html=1;sketch=1;curveFitting=1;jiggle=2;" vertex="1" parent="1">
          <mxGeometry x="850" y="550" width="140" height="80" as="geometry" />
        </mxCell>
        <mxCell id="Dkk2OCtutx-lru7fRSQ2-12" value="End" style="ellipse;whiteSpace=wrap;html=1;aspect=fixed;sketch=1;curveFitting=1;jiggle=2;" vertex="1" parent="1">
          <mxGeometry x="1070" y="565" width="50" height="50" as="geometry" />
        </mxCell>
        <mxCell id="Dkk2OCtutx-lru7fRSQ2-21" style="edgeStyle=orthogonalEdgeStyle;rounded=0;orthogonalLoop=1;jettySize=auto;html=1;exitX=1;exitY=0.5;exitDx=0;exitDy=0;entryX=0.5;entryY=1;entryDx=0;entryDy=0;sketch=1;curveFitting=1;jiggle=2;" edge="1" parent="1" source="Dkk2OCtutx-lru7fRSQ2-14" target="Dkk2OCtutx-lru7fRSQ2-12">
          <mxGeometry relative="1" as="geometry" />
        </mxCell>
        <mxCell id="Dkk2OCtutx-lru7fRSQ2-42" style="edgeStyle=orthogonalEdgeStyle;rounded=0;orthogonalLoop=1;jettySize=auto;html=1;exitX=0;exitY=0.5;exitDx=0;exitDy=0;entryX=0.5;entryY=0;entryDx=0;entryDy=0;sketch=1;curveFitting=1;jiggle=2;" edge="1" parent="1" source="Dkk2OCtutx-lru7fRSQ2-14" target="ee3Hf3BzdbRgXfLqMHV_-44">
          <mxGeometry relative="1" as="geometry" />
        </mxCell>
        <mxCell id="Dkk2OCtutx-lru7fRSQ2-14" value="Pass previous season" style="rounded=0;whiteSpace=wrap;html=1;sketch=1;curveFitting=1;jiggle=2;" vertex="1" parent="1">
          <mxGeometry x="850" y="665" width="140" height="60" as="geometry" />
        </mxCell>
        <mxCell id="Dkk2OCtutx-lru7fRSQ2-22" value="First Init &amp;amp; Periodically" style="shape=hexagon;perimeter=hexagonPerimeter2;whiteSpace=wrap;html=1;fixedSize=1;sketch=1;curveFitting=1;jiggle=2;" vertex="1" parent="1">
          <mxGeometry x="940" y="160" width="100" height="60" as="geometry" />
        </mxCell>
        <mxCell id="Dkk2OCtutx-lru7fRSQ2-23" value="Periodically" style="shape=hexagon;perimeter=hexagonPerimeter2;whiteSpace=wrap;html=1;fixedSize=1;sketch=1;curveFitting=1;jiggle=2;" vertex="1" parent="1">
          <mxGeometry x="1010" y="270" width="90" height="55" as="geometry" />
        </mxCell>
        <mxCell id="Dkk2OCtutx-lru7fRSQ2-27" value="" style="curved=1;endArrow=classic;html=1;rounded=0;exitX=0;exitY=0.25;exitDx=0;exitDy=0;entryX=1;entryY=1;entryDx=0;entryDy=0;sketch=1;curveFitting=1;jiggle=2;" edge="1" parent="1" source="Dkk2OCtutx-lru7fRSQ2-22" target="ee3Hf3BzdbRgXfLqMHV_-31">
          <mxGeometry width="50" height="50" relative="1" as="geometry">
            <mxPoint x="780" y="310" as="sourcePoint" />
            <mxPoint x="830" y="260" as="targetPoint" />
            <Array as="points">
              <mxPoint x="940" y="160" />
              <mxPoint x="920" y="150" />
              <mxPoint x="880" y="190" />
            </Array>
          </mxGeometry>
        </mxCell>
        <mxCell id="Dkk2OCtutx-lru7fRSQ2-28" value="" style="curved=1;endArrow=classic;html=1;rounded=0;exitX=0;exitY=0.75;exitDx=0;exitDy=0;entryX=1;entryY=0;entryDx=0;entryDy=0;sketch=1;curveFitting=1;jiggle=2;" edge="1" parent="1" source="Dkk2OCtutx-lru7fRSQ2-23" target="Dkk2OCtutx-lru7fRSQ2-5">
          <mxGeometry width="50" height="50" relative="1" as="geometry">
            <mxPoint x="780" y="310" as="sourcePoint" />
            <mxPoint x="830" y="260" as="targetPoint" />
            <Array as="points">
              <mxPoint x="1010" y="370" />
              <mxPoint x="970" y="320" />
            </Array>
          </mxGeometry>
        </mxCell>
        <mxCell id="Dkk2OCtutx-lru7fRSQ2-29" value="End" style="ellipse;whiteSpace=wrap;html=1;aspect=fixed;sketch=1;curveFitting=1;jiggle=2;" vertex="1" parent="1">
          <mxGeometry x="580" y="760" width="50" height="50" as="geometry" />
        </mxCell>
        <mxCell id="Dkk2OCtutx-lru7fRSQ2-30" style="edgeStyle=orthogonalEdgeStyle;rounded=0;hachureGap=4;orthogonalLoop=1;jettySize=auto;html=1;exitX=0.5;exitY=1;exitDx=0;exitDy=0;entryX=0.5;entryY=0;entryDx=0;entryDy=0;fontFamily=Architects Daughter;fontSource=https%3A%2F%2Ffonts.googleapis.com%2Fcss%3Ffamily%3DArchitects%2BDaughter;fontSize=16;sketch=1;curveFitting=1;jiggle=2;" edge="1" parent="1" source="ee3Hf3BzdbRgXfLqMHV_-44" target="Dkk2OCtutx-lru7fRSQ2-29">
          <mxGeometry relative="1" as="geometry" />
        </mxCell>
        <mxCell id="ee3Hf3BzdbRgXfLqMHV_-36" value="if the version of financial report of the season in the table&amp;nbsp;&lt;br&gt;is euqal to &lt;br&gt;the latest defined version" style="rhombus;whiteSpace=wrap;html=1;sketch=1;curveFitting=1;jiggle=2;" parent="1" vertex="1">
          <mxGeometry x="490" y="425" width="230" height="140" as="geometry" />
        </mxCell>
        <mxCell id="ee3Hf3BzdbRgXfLqMHV_-39" style="edgeStyle=orthogonalEdgeStyle;rounded=0;orthogonalLoop=1;jettySize=auto;html=1;exitX=0.5;exitY=1;exitDx=0;exitDy=0;entryX=0.5;entryY=0;entryDx=0;entryDy=0;sketch=1;curveFitting=1;jiggle=2;" parent="1" source="ee3Hf3BzdbRgXfLqMHV_-36" target="ee3Hf3BzdbRgXfLqMHV_-8" edge="1">
          <mxGeometry relative="1" as="geometry" />
        </mxCell>
        <mxCell id="ee3Hf3BzdbRgXfLqMHV_-40" value="No" style="edgeLabel;html=1;align=center;verticalAlign=middle;resizable=0;points=[];sketch=1;curveFitting=1;jiggle=2;" parent="ee3Hf3BzdbRgXfLqMHV_-39" vertex="1" connectable="0">
          <mxGeometry x="-0.1326" y="1" relative="1" as="geometry">
            <mxPoint as="offset" />
          </mxGeometry>
        </mxCell>
        <mxCell id="ee3Hf3BzdbRgXfLqMHV_-42" style="edgeStyle=orthogonalEdgeStyle;rounded=0;orthogonalLoop=1;jettySize=auto;html=1;exitX=1;exitY=0.5;exitDx=0;exitDy=0;entryX=0.5;entryY=1;entryDx=0;entryDy=0;sketch=1;curveFitting=1;jiggle=2;" parent="1" source="ee3Hf3BzdbRgXfLqMHV_-36" target="ee3Hf3BzdbRgXfLqMHV_-44" edge="1">
          <mxGeometry relative="1" as="geometry">
            <mxPoint x="770" y="495" as="targetPoint" />
            <Array as="points">
              <mxPoint x="740" y="495" />
              <mxPoint x="740" y="705" />
              <mxPoint x="605" y="705" />
            </Array>
          </mxGeometry>
        </mxCell>
        <mxCell id="ee3Hf3BzdbRgXfLqMHV_-43" value="Yes" style="edgeLabel;html=1;align=center;verticalAlign=middle;resizable=0;points=[];sketch=1;curveFitting=1;jiggle=2;" parent="ee3Hf3BzdbRgXfLqMHV_-42" vertex="1" connectable="0">
          <mxGeometry x="-0.336" y="1" relative="1" as="geometry">
            <mxPoint as="offset" />
          </mxGeometry>
        </mxCell>
        <mxCell id="ee3Hf3BzdbRgXfLqMHV_-8" value="Send retrieve message to crawler" style="rounded=0;whiteSpace=wrap;html=1;sketch=1;curveFitting=1;jiggle=2;" parent="1" vertex="1">
          <mxGeometry x="545" y="615" width="120" height="60" as="geometry" />
        </mxCell>
        <mxCell id="ee3Hf3BzdbRgXfLqMHV_-44" value="Retrieve the financial report" style="swimlane;horizontal=0;whiteSpace=wrap;html=1;sketch=1;curveFitting=1;jiggle=2;" parent="1" vertex="1">
          <mxGeometry x="440" y="280" width="330" height="445" as="geometry" />
        </mxCell>
        <mxCell id="Dkk2OCtutx-lru7fRSQ2-31" value="if there&#39;s version information for this season in the table" style="rhombus;whiteSpace=wrap;html=1;sketch=1;curveFitting=1;jiggle=2;" vertex="1" parent="ee3Hf3BzdbRgXfLqMHV_-44">
          <mxGeometry x="60" y="35" width="210" height="80" as="geometry" />
        </mxCell>
        <mxCell id="Dkk2OCtutx-lru7fRSQ2-33" style="edgeStyle=orthogonalEdgeStyle;rounded=0;orthogonalLoop=1;jettySize=auto;html=1;exitX=0.5;exitY=0;exitDx=0;exitDy=0;entryX=0.5;entryY=0;entryDx=0;entryDy=0;sketch=1;curveFitting=1;jiggle=2;" edge="1" parent="ee3Hf3BzdbRgXfLqMHV_-44" source="ee3Hf3BzdbRgXfLqMHV_-44" target="Dkk2OCtutx-lru7fRSQ2-31">
          <mxGeometry relative="1" as="geometry" />
        </mxCell>
        <mxCell id="ee3Hf3BzdbRgXfLqMHV_-45" style="edgeStyle=orthogonalEdgeStyle;rounded=0;orthogonalLoop=1;jettySize=auto;html=1;exitX=0.5;exitY=1;exitDx=0;exitDy=0;entryX=0.5;entryY=1;entryDx=0;entryDy=0;sketch=1;curveFitting=1;jiggle=2;" parent="1" source="ee3Hf3BzdbRgXfLqMHV_-8" target="ee3Hf3BzdbRgXfLqMHV_-44" edge="1">
          <mxGeometry relative="1" as="geometry">
            <Array as="points">
              <mxPoint x="605" y="705" />
              <mxPoint x="605" y="705" />
            </Array>
          </mxGeometry>
        </mxCell>
        <mxCell id="Dkk2OCtutx-lru7fRSQ2-32" style="edgeStyle=orthogonalEdgeStyle;rounded=0;orthogonalLoop=1;jettySize=auto;html=1;exitX=0.5;exitY=1;exitDx=0;exitDy=0;entryX=0.5;entryY=0;entryDx=0;entryDy=0;sketch=1;curveFitting=1;jiggle=2;" edge="1" parent="1" source="Dkk2OCtutx-lru7fRSQ2-31" target="ee3Hf3BzdbRgXfLqMHV_-36">
          <mxGeometry relative="1" as="geometry" />
        </mxCell>
        <mxCell id="Dkk2OCtutx-lru7fRSQ2-34" value="Yes" style="edgeLabel;html=1;align=center;verticalAlign=middle;resizable=0;points=[];sketch=1;curveFitting=1;jiggle=2;" vertex="1" connectable="0" parent="Dkk2OCtutx-lru7fRSQ2-32">
          <mxGeometry x="-0.1232" y="-1" relative="1" as="geometry">
            <mxPoint as="offset" />
          </mxGeometry>
        </mxCell>
        <mxCell id="Dkk2OCtutx-lru7fRSQ2-35" style="edgeStyle=orthogonalEdgeStyle;rounded=0;orthogonalLoop=1;jettySize=auto;html=1;exitX=0;exitY=0.5;exitDx=0;exitDy=0;entryX=0;entryY=0.5;entryDx=0;entryDy=0;sketch=1;curveFitting=1;jiggle=2;" edge="1" parent="1" source="Dkk2OCtutx-lru7fRSQ2-31" target="ee3Hf3BzdbRgXfLqMHV_-8">
          <mxGeometry relative="1" as="geometry" />
        </mxCell>
        <mxCell id="Dkk2OCtutx-lru7fRSQ2-36" value="No" style="edgeLabel;html=1;align=center;verticalAlign=middle;resizable=0;points=[];sketch=1;curveFitting=1;jiggle=2;" vertex="1" connectable="0" parent="Dkk2OCtutx-lru7fRSQ2-35">
          <mxGeometry x="-0.7618" relative="1" as="geometry">
            <mxPoint as="offset" />
          </mxGeometry>
        </mxCell>
      </root>
    </mxGraphModel>
  </diagram>
</mxfile>
